<?xml version="1.0" encoding="iso-8859-1"?>
<!-- Generator: Adobe Illustrator 16.0.0, SVG Export Plug-In . SVG Version: 6.00 Build 0)  -->
<!DOCTYPE svg PUBLIC "-//W3C//DTD SVG 1.1//EN" "http://www.w3.org/Graphics/SVG/1.1/DTD/svg11.dtd">
<svg xmlns="http://www.w3.org/2000/svg" xmlns:xlink="http://www.w3.org/1999/xlink" version="1.1" id="Capa_1" x="0px" y="0px" width="512px" height="512px" viewBox="0 0 410.001 410.001" style="enable-background:new 0 0 410.001 410.001;" xml:space="preserve">
<g>
	<g>
		<path d="M397.218,131.491L217.526,36.697c-6.998-3.69-15.364-3.69-22.359,0L15.474,131.491    c-7.861,4.146-12.78,12.305-12.78,21.192c0,7.066,3.117,13.662,8.343,18.157v66.891H8.056c-2.069-0.184-3.91,1.31-4.149,3.372    l-1.595,13.759c-0.763,6.575-1.525,13.15-2.286,19.728c-0.118,1.021,0.179,2.046,0.825,2.847c0.646,0.8,1.586,1.308,2.608,1.404    h30.667c1.022-0.098,1.962-0.604,2.608-1.404c0.645-0.8,0.942-1.825,0.824-2.847l-3.882-33.485    c-0.24-2.062-2.078-3.558-4.147-3.372h-2.982v-58.017l27.164,14.33v134.083c0,9.207,5.617,17.48,14.174,20.877    c45.235,17.958,91.819,27.064,138.457,27.065c0.006,0,0.006,0,0.013,0c46.622,0,93.21-9.105,138.456-27.063    c8.559-3.396,14.178-11.672,14.178-20.879c-0.005-57.4-0.005-70.033-0.002-118.657l0.001-15.426l38.233-20.171    c7.861-4.146,12.781-12.304,12.781-21.19C409.998,143.795,405.078,135.637,397.218,131.491z M206.352,331.148    c-0.004,0-0.01,0-0.012,0c-36.109-0.001-72.271-6.255-107.708-18.611V217.74l96.536,50.926c3.498,1.845,7.337,2.769,11.177,2.769    c3.842,0,7.683-0.923,11.181-2.769l96.531-50.926c-0.001,37.646-0.002,53.108,0.001,94.798    C278.611,324.896,242.451,331.148,206.352,331.148z" fill="#FFF"/>
	</g>
</g>
<g>
</g>
<g>
</g>
<g>
</g>
<g>
</g>
<g>
</g>
<g>
</g>
<g>
</g>
<g>
</g>
<g>
</g>
<g>
</g>
<g>
</g>
<g>
</g>
<g>
</g>
<g>
</g>
<g>
</g>
</svg>
