<?xml version="1.0" encoding="UTF-8" standalone="no"?>
<!-- Generator: Adobe Illustrator 19.2.0, SVG Export Plug-In . SVG Version: 6.00 Build 0)  -->

<svg
   xmlns:dc="http://purl.org/dc/elements/1.1/"
   xmlns:cc="http://creativecommons.org/ns#"
   xmlns:rdf="http://www.w3.org/1999/02/22-rdf-syntax-ns#"
   xmlns:svg="http://www.w3.org/2000/svg"
   xmlns="http://www.w3.org/2000/svg"
   xmlns:sodipodi="http://sodipodi.sourceforge.net/DTD/sodipodi-0.dtd"
   xmlns:inkscape="http://www.inkscape.org/namespaces/inkscape"
   version="1.1"
   id="Layer_1"
   x="0px"
   y="0px"
   viewBox="0 0 176 150"
   style="enable-background:new 0 0 176 150;"
   xml:space="preserve"
   inkscape:version="0.91 r13725"
   sodipodi:docname="matkulcik_web.svg"><metadata
     id="metadata61"><rdf:RDF><cc:Work
         rdf:about=""><dc:format>image/svg+xml</dc:format><dc:type
           rdf:resource="http://purl.org/dc/dcmitype/StillImage" /><dc:title></dc:title></cc:Work></rdf:RDF></metadata><defs
     id="defs59" /><sodipodi:namedview
     pagecolor="#ffffff"
     bordercolor="#666666"
     borderopacity="1"
     objecttolerance="10"
     gridtolerance="10"
     guidetolerance="10"
     inkscape:pageopacity="0"
     inkscape:pageshadow="2"
     inkscape:window-width="1366"
     inkscape:window-height="712"
     id="namedview57"
     showgrid="false"
     inkscape:zoom="3.1466667"
     inkscape:cx="117.21531"
     inkscape:cy="63.975745"
     inkscape:window-x="0"
     inkscape:window-y="27"
     inkscape:window-maximized="1"
     inkscape:current-layer="Layer_1" /><style
     type="text/css"
     id="style3">
	.st0{fill:#7C634F;}
	.st1{fill:#D0D2D3;}
	.st2{fill:#6ECAF3;}
	.st3{fill:#CED0D1;}
	.st4{fill:#F6CC78;}
	.st5{fill:#BBBDBF;}
	.st6{fill:#58595B;}
	.st7{fill:#FFB4D3;}
	.st8{fill:#A6A8AB;}
	.st9{opacity:0.2;fill:#FFFFFF;}
	.st10{fill:#4F3E31;}
	.st11{fill:#EBEBEC;}
	.st12{fill:#E0E1E2;}
	.st13{fill:#D1D2D4;}
	.st14{fill:#534235;}
	.st15{fill:#4A3A2E;}
	.st16{fill:#F8C1D9;}
	.st17{fill:#FFFFFF;}
	.st18{fill:#E4E5E6;}
	.st19{fill:#836854;}
	.st20{fill:#745D4A;}
	.st21{fill:#F3A5C8;}
	.st22{fill:#66493C;}
	.st23{fill:#6F5043;}
	.st24{fill:#4C3C34;}
</style><circle
     class="st1"
     cx="88"
     cy="105"
     r="4"
     id="circle5" /><path
     class="st1"
     d="m 174.63559,94 0,16.09 c 0,4.37 -3.54,7.91 -7.91,7.91 l -15.09,0 0,-9.64 c 0,-0.75 -0.61,-1.36 -1.36,-1.36 l -21.28,0 c -0.75,0 -1.36,0.61 -1.36,1.36 l 0,9.64 -25,0 -28.999997,0 -63.09,0 c -4.3699998,0 -7.9099998,-3.54 -7.9099998,-7.91 l 0,-16.09 171.9999968,0 z m -81.999997,11 c 0,-2.21 -1.79,-4 -4,-4 -2.21,0 -4,1.79 -4,4 0,2.21 1.79,4 4,4 2.21,0 4,-1.79 4,-4 z"
     id="path7"
     inkscape:connector-curvature="0"
     style="fill:#d0d2d3" /><path
     class="st2"
     d="M174,14v80H2V14H174z"
     id="path9"
     style="fill:#101010;fill-opacity:1" /><path
     class="st3"
     d="M174,9.91V14H2V9.91C2,5.54,5.54,2,9.91,2h156.18C170.46,2,174,5.54,174,9.91z M27,8c0-1.1-0.9-2-2-2  s-2,0.9-2,2s0.9,2,2,2S27,9.1,27,8z M20,8c0-1.1-0.9-2-2-2s-2,0.9-2,2s0.9,2,2,2S20,9.1,20,8z M13,8c0-1.1-0.9-2-2-2S9,6.9,9,8  s0.9,2,2,2S13,9.1,13,8z"
     id="path11" /><path
     class="st4"
     d="M151,118v11.64c0,0.75-0.61,1.36-1.36,1.36h-21.28c-0.75,0-1.36-0.61-1.36-1.36V118v-9.64  c0-0.75,0.61-1.36,1.36-1.36h21.28c0.75,0,1.36,0.61,1.36,1.36V118z"
     id="path13"
     style="fill:#f6cc78;fill-opacity:1" /><path
     class="st5"
     d="M105.2,143c0.42,2.61-1.6,4.98-4.24,4.98H74.04c-2.64,0-4.66-2.37-4.24-4.98l3.2-25h29L105.2,143z"
     id="path15" /><circle
     class="st6"
     cx="25"
     cy="8"
     r="2"
     id="circle17" /><circle
     class="st6"
     cx="18"
     cy="8"
     r="2"
     id="circle19" /><g
     id="g21"
     transform="translate(164.61864,-1.9067797)" /><circle
     class="st6"
     cx="11"
     cy="8"
     r="2"
     id="circle43" /><polygon
     class="st8"
     points="103.279,126 102,118 73,118 71.72,126 "
     id="polygon45" /><path
     class="st9"
     d="M174,92V14V9.91c0-4.37-3.54-7.91-7.91-7.91H92L174,92z"
     id="path47"
     style="fill:#ffffff;fill-opacity:0.21226415" /><g
     id="g49"><path
       class="st6"
       d="M166.09,0H9.91C4.446,0,0,4.446,0,9.91v100.18c0,5.465,4.446,9.91,9.91,9.91h60.818l-2.903,22.683   c-0.181,1.125-0.051,2.261,0.356,3.298H40.043c-1.104,0-2,0.896-2,2s0.896,2,2,2H135c1.104,0,2-0.896,2-2s-0.896-2-2-2h-28.18   c0.407-1.03,0.539-2.149,0.364-3.234L104.272,120H125v9.64c0,1.853,1.507,3.36,3.36,3.36h21.28c1.853,0,3.36-1.508,3.36-3.36V120   h13.09c5.464,0,9.91-4.445,9.91-9.91V9.91C176,4.446,171.554,0,166.09,0z M4,16h168v76H4V16z M9.91,4h156.18   c3.259,0,5.91,2.651,5.91,5.91V12H4V9.91C4,6.651,6.651,4,9.91,4z M74.04,145.98c-0.681,0-1.301-0.287-1.745-0.808   c-0.444-0.521-0.629-1.181-0.512-1.919L74.76,120h25.479l2.986,23.317c0.108,0.675-0.077,1.334-0.521,1.855   c-0.444,0.521-1.063,0.808-1.745,0.808H74.04z M149,129h-20v-20h20V129z M166.09,116H153v-7.64c0-1.853-1.507-3.36-3.36-3.36   h-21.28c-1.853,0-3.36,1.508-3.36,3.36V116h-21.24H102H73h-1.76H9.91C6.651,116,4,113.349,4,110.09V96h168v14.09   C172,113.349,169.349,116,166.09,116z"
       id="path51" /><path
       class="st6"
       d="M88,100c-3.309,0-6,2.691-6,6s2.691,6,6,6s6-2.691,6-6S91.309,100,88,100z M88,108c-1.103,0-2-0.897-2-2   s0.897-2,2-2s2,0.897,2,2S89.103,108,88,108z"
       id="path53" /><path
       class="st6"
       d="M145.631,115.103c-0.867-0.29-1.796,0.051-2.287,0.774l-0.885-1.771c-0.356-0.711-1.107-1.155-1.894-1.103   c-0.794,0.042-1.488,0.55-1.768,1.295l-1.127,3.006l-1.127-3.006c-0.279-0.744-0.973-1.253-1.767-1.295   c-0.799-0.052-1.538,0.39-1.894,1.101l-1.67,3.33c-0.495,0.987-0.096,2.189,0.891,2.685c0.757,0.379,1.642,0.232,2.236-0.303   l1.458,3.887c0.292,0.78,1.039,1.298,1.873,1.298s1.58-0.518,1.873-1.298l1.39-3.705l0.949,1.897   c0.362,0.724,1.122,1.154,1.932,1.101c0.807-0.058,1.5-0.597,1.755-1.364l1.33-4C147.247,116.583,146.679,115.451,145.631,115.103z   "
       id="path55" /></g><text
     xml:space="preserve"
     style="font-style:normal;font-weight:normal;font-size:19.84454346px;line-height:125%;font-family:sans-serif;letter-spacing:0px;word-spacing:0px;fill:#000000;fill-opacity:1;stroke:none;stroke-width:1px;stroke-linecap:butt;stroke-linejoin:miter;stroke-opacity:1"
     x="45.7094"
     y="59.727264"
     id="text4189"
     sodipodi:linespacing="125%"><tspan
       sodipodi:role="line"
       id="tspan4191"
       x="45.7094"
       y="59.727264"
       style="font-style:normal;font-variant:normal;font-weight:normal;font-stretch:normal;font-size:6.20141983px;font-family:'Adobe Helvetica';-inkscape-font-specification:'Adobe Helvetica';fill:#ffffff">web designer &amp; developer</tspan><tspan
       sodipodi:role="line"
       x="45.7094"
       y="67.479042"
       id="tspan4193"
       style="font-style:normal;font-variant:normal;font-weight:normal;font-stretch:normal;font-size:6.20141983px;font-family:'Adobe Helvetica';-inkscape-font-specification:'Adobe Helvetica';fill:#ffffff" /><tspan
       sodipodi:role="line"
       x="45.7094"
       y="75.230812"
       id="tspan4195"
       style="font-style:normal;font-variant:normal;font-weight:normal;font-stretch:normal;font-size:6.20141983px;font-family:'Adobe Helvetica';-inkscape-font-specification:'Adobe Helvetica';fill:#ffffff" /></text>
<text
     xml:space="preserve"
     style="font-style:normal;font-weight:normal;font-size:26.70174217px;line-height:125%;font-family:sans-serif;letter-spacing:0px;word-spacing:0px;fill:#fc4d3c;fill-opacity:1;stroke:none;stroke-width:1px;stroke-linecap:butt;stroke-linejoin:miter;stroke-opacity:1"
     x="45.639713"
     y="50.258533"
     id="text4197"
     sodipodi:linespacing="125%"><tspan
       sodipodi:role="line"
       id="tspan4199"
       x="45.639713"
       y="50.258533"
       style="font-style:normal;font-variant:normal;font-weight:normal;font-stretch:normal;font-size:8.34429455px;font-family:Merriweather;-inkscape-font-specification:Merriweather;fill:#fc4d3c;fill-opacity:1">Róbert MATKULČÍK</tspan></text>
<path
     id="path4725"
     d="m 50.083286,68.734305 c -0.224698,0 -0.406835,0.25255 -0.406835,0.562997 0,0.311072 0.182137,0.563623 0.406835,0.563623 0.224698,0 0.406835,-0.252551 0.406835,-0.563623 -3.13e-4,-0.310447 -0.182137,-0.562997 -0.406835,-0.562997 z m 1.416411,-1.465545 c 0.04663,-0.114226 0.04851,-0.763284 -0.198723,-1.385116 0,0 -0.566752,0.06227 -1.424235,0.650936 -0.179946,-0.05008 -0.484446,-0.07448 -0.788321,-0.07448 -0.3045,0 -0.608687,0.02441 -0.788633,0.07448 -0.857796,-0.588659 -1.42455,-0.650936 -1.42455,-0.650936 -0.246917,0.621832 -0.244413,1.27089 -0.19841,1.385116 -0.290417,0.315454 -0.46786,0.694436 -0.46786,1.21143 0,2.248858 1.866122,2.284847 2.336798,2.284847 0.107029,0 0.318583,6.26e-4 0.542655,6.26e-4 0.223759,0 0.435626,-6.26e-4 0.54203,-6.26e-4 0.471302,0 2.336796,-0.03599 2.336796,-2.284847 0,-0.516994 -0.177129,-0.895976 -0.467547,-1.21143 z m -2.402829,3.219942 -0.01752,0 c -1.180134,0 -2.099582,-0.140514 -2.099582,-1.287789 0,-0.275083 0.09701,-0.529824 0.327659,-0.741378 0.38399,-0.352695 1.0343,-0.166177 1.771923,-0.166177 0.0031,0 0.0063,0 0.0091,0 0.0031,0 0.0056,0 0.0084,0 0.737623,0 1.388246,-0.186518 1.772548,0.166177 0.230018,0.211554 0.327033,0.466295 0.327033,0.741378 0,1.147275 -0.919134,1.287789 -2.099581,1.287789 z m -1.003631,-1.754397 c -0.224698,0 -0.406834,0.25255 -0.406834,0.562997 0,0.311072 0.182136,0.563623 0.406834,0.563623 0.225011,0 0.407148,-0.252551 0.407148,-0.563623 0,-0.310447 -0.182137,-0.562997 -0.407148,-0.562997 z"
     inkscape:connector-curvature="0"
     style="fill:#ff686b;fill-opacity:1" /><path
     id="path4735"
     d="m 64.339161,65.883593 c -1.547639,0 -2.522009,0.431785 -2.45642,0.800106 0.01892,0.105505 0.07095,0.527526 0.136853,0.88771 -0.758368,0.253322 -1.009686,0.664223 -0.975946,0.999182 0.04005,0.396256 0.454391,0.820448 1.364748,0.893678 0.519663,0.04177 1.144963,-0.203417 1.550162,-0.622455 -0.03847,-0.05614 -0.06086,-0.12205 -0.06086,-0.191754 0,-0.209926 0.197713,-0.379711 0.441462,-0.379711 0.244066,0 0.441462,0.170056 0.441462,0.379711 0,0.206671 -0.192351,0.374558 -0.431686,0.379168 -0.48214,0.535122 -1.216543,0.858148 -1.912161,0.820447 0.01608,0.08788 0.02207,0.256848 0.03027,0.301871 0.02838,0.157037 0.740079,0.612962 1.872113,0.614047 1.132034,-0.0011 1.843734,-0.45701 1.872429,-0.613776 0.02775,-0.156495 0.517457,-3.094374 0.583991,-3.468118 0.06559,-0.368321 -0.909096,-0.800106 -2.45642,-0.800106 z m -2.855943,2.653909 c -0.01734,-0.174395 0.143475,-0.40629 0.606695,-0.580144 0.06654,0.363438 0.13906,0.758609 0.202757,1.104959 -0.505789,-0.08489 -0.787694,-0.311634 -0.809452,-0.524815 z m 2.855943,-1.291288 c -1.132034,-5.43e-4 -1.935179,-0.361811 -1.935179,-0.49688 -6.31e-4,-0.133983 0.803145,-0.485487 1.935179,-0.484945 1.132034,-5.42e-4 1.935811,0.350962 1.93518,0.484945 0,0.135069 -0.803146,0.496337 -1.93518,0.49688 z"
     inkscape:connector-curvature="0"
     style="opacity:0.98999999;fill:#ff686b;fill-opacity:1" /><path
     id="path4745"
     d="m 81.360563,67.255008 c 0.0025,0.0529 0.0034,0.106443 0.0034,0.159338 0,1.629292 -1.188213,3.507386 -3.360919,3.507386 -0.66749,0 -1.28804,-0.20407 -1.810954,-0.55409 0.09263,0.01143 0.186509,0.01731 0.281641,0.01731 0.553895,0 1.06304,-0.197213 1.467039,-0.527316 -0.516656,-0.01012 -0.9532,-0.36602 -1.103408,-0.855787 0.07197,0.01404 0.14614,0.02155 0.222183,0.02155 0.107963,0 0.212483,-0.01469 0.31137,-0.04277 -0.540438,-0.113626 -0.947566,-0.611556 -0.947566,-1.209072 0,-0.0052 0,-0.01012 0,-0.01535 0.159284,0.0924 0.341725,0.14791 0.535118,0.15444 -0.317003,-0.221375 -0.52573,-0.598169 -0.52573,-1.026226 0,-0.225619 0.05821,-0.437525 0.160222,-0.619719 0.582372,0.746079 1.45327,1.2365 2.434946,1.288088 -0.02003,-0.09044 -0.03036,-0.184153 -0.03036,-0.281126 0,-0.68045 0.528547,-1.231928 1.181016,-1.231928 0.339847,0 0.646836,0.149216 0.862448,0.388875 0.268811,-0.05551 0.521663,-0.158032 0.750105,-0.299084 -0.08825,0.287656 -0.275695,0.529275 -0.519472,0.681756 0.239083,-0.03004 0.466273,-0.09567 0.678443,-0.193948 -0.158345,0.247496 -0.358623,0.464299 -0.589569,0.637677 z"
     inkscape:connector-curvature="0"
     style="fill:#ff686b;fill-opacity:1" /><path
     id="path4755"
     d="m 97.610657,68.128877 c 0,0.121639 -0.17562,0.209105 -0.17562,0.209105 l -4.929422,2.15736 c -0.359299,0.166389 -0.652957,0.04312 -0.652957,-0.272162 l 0,-4.189013 c 0,-0.316098 0.293658,-0.438551 0.653533,-0.272569 l 4.929426,2.158174 c -5.8e-4,0 0.17504,0.08747 0.17504,0.209105 z"
     inkscape:connector-curvature="0"
     style="fill:#ff686b;fill-opacity:1" /><path
     id="path4765"
     d="m 106.92149,69.885879 c -0.0679,0 -0.1364,-0.02894 -0.19107,-0.08788 l -1.45604,-1.568509 1.5369,-1.655688 c 0.11856,-0.12728 0.30042,-0.115075 0.40602,0.02894 0.10561,0.144019 0.095,0.364405 -0.0239,0.492383 l -1.05289,1.134362 0.97204,1.046835 c 0.11884,0.127978 0.12949,0.348364 0.0239,0.492382 -0.0567,0.07776 -0.13583,0.117168 -0.21496,0.117168 z m 2.57398,-6.98e-4 1.53691,-1.655687 -1.45605,-1.56851 c -0.11884,-0.127977 -0.30071,-0.115075 -0.40602,0.02894 -0.10561,0.144018 -0.095,0.364404 0.0239,0.492382 l 0.97204,1.047184 -1.0529,1.134013 c -0.11885,0.127978 -0.12949,0.348364 -0.0239,0.492382 0.0567,0.07776 0.13582,0.117168 0.21495,0.117168 0.0679,0 0.1364,-0.02894 0.19107,-0.08788 z m -1.34612,0.494126 0.57551,-4.184551 c 0.0262,-0.190049 -0.0797,-0.369636 -0.23654,-0.401369 -0.1574,-0.03208 -0.30531,0.09659 -0.33092,0.286642 l -0.57551,4.184552 c -0.0262,0.190048 0.0797,0.369635 0.23654,0.401368 0.0161,0.0031 0.0316,0.0045 0.0475,0.0045 0.13812,0 0.26013,-0.121003 0.28344,-0.291175 z"
     inkscape:connector-curvature="0"
     style="fill:#ff686b;fill-opacity:1" /><path
     id="path4775"
     d="m 121.06955,66.659932 c 0.1561,0.10659 2.31855,1.584209 2.39916,1.639131 0.0806,0.05492 0.1849,0.08096 0.28982,0.08096 0.10492,0 0.20921,-0.02604 0.28982,-0.08096 0.0806,-0.05492 2.24306,-1.532541 2.39917,-1.639131 0.15642,-0.106998 0.30421,-0.523188 0.0173,-0.523188 l -5.4122,0 c -0.28694,0 -0.13915,0.41619 0.017,0.523188 z m 5.45058,0.896253 c -0.17754,0.117575 -2.36302,1.565902 -2.47178,1.638318 -0.10876,0.07242 -0.1849,0.08096 -0.28982,0.08096 -0.10492,0 -0.18106,-0.0085 -0.28982,-0.08096 -0.10876,-0.07242 -2.28177,-1.52115 -2.4593,-1.638724 -0.12476,-0.08299 -0.12348,0.01424 -0.12348,0.0891 0,0.07486 0,2.967036 0,2.967036 0,0.17087 0.18106,0.406833 0.31989,0.406833 l 5.11822,0 c 0.13883,0 0.31989,-0.235963 0.31989,-0.406833 0,0 0,-2.891772 0,-2.966629 0,-0.07486 0.001,-0.172091 -0.1238,-0.0891 z"
     inkscape:connector-curvature="0"
     style="fill:#ff686b;fill-opacity:1" /></svg>