<svg xmlns="http://www.w3.org/2000/svg" xmlns:xlink="http://www.w3.org/1999/xlink" version="1.1" x="0px" y="0px" viewBox="0 0 100 125" enable-background="new 0 0 100 100" xml:space="preserve"><g><path d="M-1018.306,25.076h-22.973 M-1049.811,25.076h-10.83c-0.544,0-0.984,0.44-0.984,0.984v47.916   c0,0.543,0.44,0.984,0.984,0.984h26.061h9.576h26.061c0.544,0,0.984-0.441,0.984-0.984V26.06c0-0.544-0.44-0.984-0.984-0.984   h-10.83 M-999.928,72.991h-59.729V27.044h59.729V72.991z"/><path d="M-1053.967,49.688h5.723c0.468,0,0.848-0.38,0.848-0.848v-5.935c0-0.468-0.38-0.848-0.848-0.848h-5.723   c-0.47,0-0.849,0.38-0.849,0.848v5.935C-1054.815,49.309-1054.437,49.688-1053.967,49.688z M-1053.119,43.754h4.026v4.239h-4.026   V43.754z"/><path d="M-1045.489,49.688h5.723c0.469,0,0.848-0.38,0.848-0.848v-5.935c0-0.468-0.379-0.848-0.848-0.848h-5.723   c-0.469,0-0.848,0.38-0.848,0.848v5.935C-1046.337,49.309-1045.958,49.688-1045.489,49.688z M-1044.642,43.754h4.027v4.239h-4.027   V43.754z"/><path d="M-1045.489,58.563h5.723c0.469,0,0.848-0.38,0.848-0.848v-5.935c0-0.468-0.379-0.848-0.848-0.848h-5.723   c-0.469,0-0.848,0.38-0.848,0.848v5.935C-1046.337,58.184-1045.958,58.563-1045.489,58.563z M-1044.642,52.629h4.027v4.239h-4.027   V52.629z"/><path d="M-1037.012,49.688h5.723c0.469,0,0.848-0.38,0.848-0.848v-5.935c0-0.468-0.379-0.848-0.848-0.848h-5.723   c-0.468,0-0.847,0.38-0.847,0.848v5.935C-1037.858,49.309-1037.479,49.688-1037.012,49.688z M-1036.164,43.754h4.028v4.239h-4.028   V43.754z"/><path d="M-1028.533,49.688h5.723c0.469,0,0.848-0.38,0.848-0.848v-5.935c0-0.468-0.379-0.848-0.848-0.848h-5.723   c-0.469,0-0.849,0.38-0.849,0.848v5.935C-1029.382,49.309-1029.002,49.688-1028.533,49.688z M-1027.686,43.754h4.026v4.239h-4.026   V43.754z"/><path d="M-1020.056,49.688h5.723c0.469,0,0.849-0.38,0.849-0.848v-5.935c0-0.468-0.38-0.848-0.849-0.848h-5.723   c-0.469,0-0.848,0.38-0.848,0.848v5.935C-1020.903,49.309-1020.524,49.688-1020.056,49.688z M-1019.207,43.754h4.026v4.239h-4.026   V43.754z"/><path d="M-1011.687,49.688h5.723c0.468,0,0.848-0.38,0.848-0.848v-5.935c0-0.468-0.38-0.848-0.848-0.848h-5.723   c-0.47,0-0.849,0.38-0.849,0.848v5.935C-1012.535,49.309-1012.156,49.688-1011.687,49.688z M-1010.839,43.754h4.026v4.239h-4.026   V43.754z"/><path d="M-1011.645,67.394h5.723c0.468,0,0.848-0.38,0.848-0.848v-5.935c0-0.468-0.38-0.848-0.848-0.848h-5.723   c-0.47,0-0.849,0.38-0.849,0.848v5.935C-1012.493,67.014-1012.114,67.394-1011.645,67.394z M-1010.797,61.459h4.026v4.239h-4.026   V61.459z"/><path d="M-1054.015,67.394h5.723c0.468,0,0.848-0.38,0.848-0.848v-5.935c0-0.468-0.38-0.848-0.848-0.848h-5.723   c-0.47,0-0.849,0.38-0.849,0.848v5.935C-1054.863,67.014-1054.484,67.394-1054.015,67.394z M-1053.167,61.459h4.026v4.239h-4.026   V61.459z"/><path d="M-1045.489,40.828h5.723c0.469,0,0.848-0.38,0.848-0.848v-5.935c0-0.468-0.379-0.848-0.848-0.848h-5.723   c-0.469,0-0.848,0.38-0.848,0.848v5.935C-1046.337,40.448-1045.958,40.828-1045.489,40.828z M-1044.642,34.893h4.027v4.239h-4.027   V34.893z"/><path d="M-1053.968,40.828h5.723c0.469,0,0.848-0.38,0.848-0.848v-5.935c0-0.468-0.379-0.848-0.848-0.848h-5.723   c-0.469,0-0.848,0.38-0.848,0.848v5.935C-1054.815,40.448-1054.437,40.828-1053.968,40.828z M-1053.12,34.893h4.027v4.239h-4.027   V34.893z"/><path d="M-1037.012,40.828h5.723c0.469,0,0.848-0.38,0.848-0.848v-5.935c0-0.468-0.379-0.848-0.848-0.848h-5.723   c-0.468,0-0.847,0.38-0.847,0.848v5.935C-1037.858,40.448-1037.479,40.828-1037.012,40.828z M-1036.164,34.893h4.028v4.239h-4.028   V34.893z"/><path d="M-1028.533,40.828h5.723c0.469,0,0.848-0.38,0.848-0.848v-5.935c0-0.468-0.379-0.848-0.848-0.848h-5.723   c-0.469,0-0.849,0.38-0.849,0.848v5.935C-1029.382,40.448-1029.002,40.828-1028.533,40.828z M-1027.686,34.893h4.026v4.239h-4.026   V34.893z"/><path d="M-1020.056,40.828h5.723c0.469,0,0.849-0.38,0.849-0.848v-5.935c0-0.468-0.38-0.848-0.849-0.848h-5.723   c-0.469,0-0.848,0.38-0.848,0.848v5.935C-1020.903,40.448-1020.524,40.828-1020.056,40.828z M-1019.207,34.893h4.026v4.239h-4.026   V34.893z"/><path d="M-1011.687,40.828h5.723c0.468,0,0.848-0.38,0.848-0.848v-5.935c0-0.468-0.38-0.848-0.848-0.848h-5.723   c-0.47,0-0.849,0.38-0.849,0.848v5.935C-1012.535,40.448-1012.156,40.828-1011.687,40.828z M-1010.839,34.893h4.026v4.239h-4.026   V34.893z"/><path d="M-1053.967,58.549h5.723c0.468,0,0.848-0.38,0.848-0.848v-5.935c0-0.468-0.38-0.848-0.848-0.848h-5.723   c-0.47,0-0.849,0.38-0.849,0.848v5.935C-1054.815,58.169-1054.437,58.549-1053.967,58.549z M-1053.119,52.615h4.026v4.239h-4.026   V52.615z"/><path d="M-1037.012,58.549h5.723c0.469,0,0.848-0.38,0.848-0.848v-5.935c0-0.468-0.379-0.848-0.848-0.848h-5.723   c-0.468,0-0.847,0.38-0.847,0.848v5.935C-1037.858,58.169-1037.479,58.549-1037.012,58.549z M-1036.164,52.615h4.028v4.239h-4.028   V52.615z"/><path d="M-1028.533,58.549h5.723c0.469,0,0.848-0.38,0.848-0.848v-5.935c0-0.468-0.379-0.848-0.848-0.848h-5.723   c-0.469,0-0.849,0.38-0.849,0.848v5.935C-1029.382,58.169-1029.002,58.549-1028.533,58.549z M-1027.686,52.615h4.026v4.239h-4.026   V52.615z"/><path d="M-1020.056,58.549h14.091c0.469,0,0.849-0.38,0.849-0.848v-5.935c0-0.468-0.38-0.848-0.849-0.848h-14.091   c-0.469,0-0.848,0.38-0.848,0.848v5.935C-1020.903,58.169-1020.524,58.549-1020.056,58.549z M-1019.207,52.615h12.395v4.239   h-12.395V52.615z"/><path d="M-1045.515,67.41h31.196c0.468,0,0.848-0.38,0.848-0.848v-5.935c0-0.468-0.38-0.848-0.848-0.848h-31.196   c-0.47,0-0.849,0.38-0.849,0.848v5.935C-1046.363,67.03-1045.984,67.41-1045.515,67.41z M-1044.667,61.476h29.5v4.239h-29.5V61.476   z"/></g><g><path d="M80.934,24.958H19.066c-0.543,0-0.982,0.439-0.982,0.982V74.06c0,0.543,0.439,0.982,0.982,0.982h61.867   c0.543,0,0.982-0.439,0.982-0.982V25.94C81.916,25.397,81.477,24.958,80.934,24.958z M79.951,73.078H20.048V26.922h59.903V73.078z"/><path d="M23.982,36.476h52.035c0.546,0,0.988-0.442,0.988-0.988c0-0.545-0.442-0.987-0.988-0.987H23.982   c-0.546,0-0.988,0.442-0.988,0.987C22.994,36.033,23.437,36.476,23.982,36.476z"/><circle cx="24.467" cy="30.85" r="1.473"/><circle cx="28.395" cy="30.85" r="1.473"/><circle cx="32.324" cy="30.85" r="1.473"/><path d="M52.672,54.945l4.857-5.95c0.412-0.519,0.63-1.01,0.63-1.609c0-1.201-0.982-1.938-1.911-1.938   c-0.926,0-1.473,0.408-2.045,1.145l-4.15,5.46l-4.176-5.568c-0.518-0.683-1.034-1.036-1.938-1.036   c-1.199,0-2.073,0.899-2.073,2.074c0,0.6,0.3,1.146,0.628,1.556L47.354,55l-5.161,6.331c-0.409,0.52-0.626,1.01-0.626,1.609   c0,1.202,0.982,1.938,1.911,1.938c0.927,0,1.474-0.409,2.046-1.146l4.422-5.759l4.475,5.867c0.52,0.682,1.037,1.037,1.938,1.037   c1.201,0,2.075-0.9,2.075-2.073c0-0.602-0.3-1.146-0.629-1.556L52.672,54.945z"/></g><text x="0" y="115" fill="#000000" font-size="5px" font-weight="bold" font-family="'Helvetica Neue', Helvetica, Arial-Unicode, Arial, Sans-serif">Created by Fabiano Coelho</text><text x="0" y="120" fill="#000000" font-size="5px" font-weight="bold" font-family="'Helvetica Neue', Helvetica, Arial-Unicode, Arial, Sans-serif">from the Noun Project</text></svg>