<?xml version="1.0" encoding="UTF-8" standalone="no"?>
<!-- Generator: Adobe Illustrator 19.1.0, SVG Export Plug-In . SVG Version: 6.00 Build 0)  -->

<svg
   xmlns:dc="http://purl.org/dc/elements/1.1/"
   xmlns:cc="http://creativecommons.org/ns#"
   xmlns:rdf="http://www.w3.org/1999/02/22-rdf-syntax-ns#"
   xmlns:svg="http://www.w3.org/2000/svg"
   xmlns="http://www.w3.org/2000/svg"
   xmlns:sodipodi="http://sodipodi.sourceforge.net/DTD/sodipodi-0.dtd"
   xmlns:inkscape="http://www.inkscape.org/namespaces/inkscape"
   version="1.1"
   id="Capa_1"
   x="0px"
   y="0px"
   viewBox="0 0 195.066 195.066"
   style="enable-background:new 0 0 195.066 195.066;"
   xml:space="preserve"
   inkscape:version="0.91 r13725"
   sodipodi:docname="101093.svg"><metadata
     id="metadata39"><rdf:RDF><cc:Work
         rdf:about=""><dc:format>image/svg+xml</dc:format><dc:type
           rdf:resource="http://purl.org/dc/dcmitype/StillImage" /><dc:title></dc:title></cc:Work></rdf:RDF></metadata><defs
     id="defs37" /><sodipodi:namedview
     pagecolor="#ffffff"
     bordercolor="#666666"
     borderopacity="1"
     objecttolerance="10"
     gridtolerance="10"
     guidetolerance="10"
     inkscape:pageopacity="0"
     inkscape:pageshadow="2"
     inkscape:window-width="1366"
     inkscape:window-height="704"
     id="namedview35"
     showgrid="false"
     inkscape:zoom="4.8393878"
     inkscape:cx="97.99249"
     inkscape:cy="158.66213"
     inkscape:window-x="0"
     inkscape:window-y="27"
     inkscape:window-maximized="1"
     inkscape:current-layer="Capa_1" /><path
     d="M142.341,195.066h-21.025c-5.522,0-13.459-1.07-19.905-6.168c-6.642-5.254-10.01-13.447-10.01-24.355  c0-24.021,30.364-24.298,31.657-24.298h1l0.026,1v16.266l-1.14-0.16c-0.03-0.004-3.109-0.432-6.794-0.432  c-2.607,0-6.074,0.844-6.074,8.138c0,5.833,4.859,10.373,6.035,11.386h19.972c8.452,0,9.107-9.739,9.131-10.154l-0.002-17.68  c0-8.675-8.631-17.894-24.625-17.894c-6.913,0-13.926-3.655-20.279-10.571c-2.498-2.72-4.425-5.418-5.706-7.393  c-0.064,4.488-0.164,12.365-0.164,18.157c0,2.558-5.233,15.551-30.106,15.551c-4.277,0-8.974-0.392-13.958-1.163  c-13.669-2.113-23.83-13.089-30.2-32.621c-4.596-14.091-6.227-30.252-6.227-39.81c0-15.222,10.398-22.272,10.84-22.565l0.251-0.166  H61.81l7.421-7.834V15.57c0-0.392-0.004-0.788-0.008-1.186c-0.036-3.511-0.077-7.491,2.789-10.387C74.675,1.308,79.471,0,86.677,0  c16.001,0,24.027,11.028,25.663,13.569h22.778c9.388,0,27.179,6.779,30.716,12.87c0.345,0.594,0.805,1.228,1.337,1.962  c4.528,6.235,13.949,19.211,13.949,86.03c0,21.494-3.327,50.83-19.177,68.525c-9.6,10.716-19.138,12.051-19.54,12.103  L142.341,195.066z M122.084,142.269c-5.249,0.209-28.684,2.266-28.684,22.274c0,25.743,19.522,28.523,27.915,28.523h20.887  c0.781-0.126,9.63-1.746,18.37-11.579c15.33-17.244,18.548-45.983,18.548-67.057c0-66.169-9.163-78.79-13.567-84.855  c-0.565-0.778-1.054-1.451-1.448-2.132c-3.131-5.39-20.464-11.874-28.986-11.874h-23.925l-0.287-0.516  C110.834,14.923,103.458,2,86.677,2c-6.644,0-10.975,1.114-13.243,3.405c-2.279,2.303-2.246,5.536-2.211,8.959  c0.004,0.405,0.008,0.808,0.008,1.206v27.525l-8.561,9.038H25.659c-1.496,1.117-9.713,7.841-9.713,20.731  c0,2.088,0.172,20.929,6.128,39.19c6.117,18.757,15.741,29.275,28.604,31.265c4.884,0.756,9.478,1.14,13.653,1.14  c25.125,0,28.106-13.415,28.106-13.551c0-8.532,0.216-21.574,0.218-21.705l0.065-3.92l1.82,3.473  c0.105,0.199,10.643,19.96,26.046,19.96c12.907,0,26.625,6.973,26.625,19.894v17.735c-0.228,4.22-2.845,12.099-11.129,12.099  h-20.677l-0.271-0.211c-0.288-0.225-7.06-5.583-7.06-13.175c0-8.379,4.391-10.138,8.074-10.138c2.488,0,4.672,0.183,5.934,0.315  V142.269z M155.281,99.483l-2.171-0.4c-7.716-1.424-23.035-4.118-25.781-4.118h-1.16l0.171-1.147  c0.08-0.539,2.058-13.186,9.98-13.186c3.282,0,7.3,2.895,11.943,8.603c3.356,4.126,5.785,8.182,5.888,8.353L155.281,99.483z   M128.524,93.037c4.638,0.437,17.481,2.722,22.715,3.67c-3.38-5.177-10.178-14.076-14.919-14.076  C131.253,82.631,129.141,90.182,128.524,93.037z M53.351,42.216l-31.36-0.032L61.169,2.763l0.003,31.884L53.351,42.216z   M26.794,40.188l25.749,0.026l6.63-6.416L59.17,7.611L26.794,40.188z"
     id="path3"
     style="fill:#ffffff;fill-opacity:1;opacity:1;stroke:none;stroke-opacity:1" /><g
     id="g5" /><g
     id="g7" /><g
     id="g9" /><g
     id="g11" /><g
     id="g13" /><g
     id="g15" /><g
     id="g17" /><g
     id="g19" /><g
     id="g21" /><g
     id="g23" /><g
     id="g25" /><g
     id="g27" /><g
     id="g29" /><g
     id="g31" /><g
     id="g33" /><path
     style="opacity:1;fill:#ffffff;fill-opacity:1;stroke:none;stroke-width:46.74399948;stroke-miterlimit:4;stroke-dasharray:none;stroke-opacity:1"
     d="m 110.37136,190.89103 c -5.80976,-2.0077 -9.75785,-5.20488 -12.623608,-10.22264 -2.82881,-4.95306 -4.509822,-13.44276 -3.752315,-18.9505 1.332022,-9.68496 10.323883,-16.80145 23.424923,-18.53937 l 4.24792,-0.56351 0,5.78999 0,5.78999 -4.55238,0.37752 c -5.79139,0.48027 -8.38354,2.70897 -9.15809,7.874 -0.73323,4.88955 0.60033,9.00808 4.32623,13.36095 l 3.04908,3.56217 12.20484,-0.29768 c 10.75262,-0.26225 12.4818,-0.50084 14.53265,-2.0052 4.49253,-3.2954 5.21804,-6.07645 5.21947,-20.00731 0.002,-14.0728 -0.52944,-16.25652 -5.04253,-20.74251 -4.23738,-4.21195 -10.29679,-6.65893 -19.08242,-7.7061 -5.01725,-0.59801 -9.12123,-1.62647 -11.7907,-2.95477 -5.05115,-2.51338 -12.077978,-9.58866 -15.440817,-15.54728 -1.389224,-2.46157 -2.862305,-4.47558 -3.273512,-4.47558 -0.414221,0 -0.747649,5.81228 -0.747649,13.03294 0,12.52616 -0.08003,13.15072 -2.058268,16.06195 -1.391246,2.04741 -3.863873,3.91764 -7.62993,5.77109 l -5.571662,2.74208 -13.653754,0 c -13.322917,0 -13.779568,-0.0581 -18.846168,-2.39778 -16.041762,-7.40782 -27.477501,-34.86313 -27.448269,-65.898743 0.0088,-9.381718 1.453484,-13.978322 6.136277,-19.524504 l 2.268107,-2.68629 18.758791,0 18.758791,0 4.253601,-4.339392 4.2536,-4.339392 L 71.397763,26.008784 71.661956,7.9624092 74.28602,5.6189013 C 76.211749,3.8990658 78.148089,3.1207151 81.562003,2.6941747 92.064116,1.3820223 100.73087,4.4426084 107.50651,11.85624 l 4.12141,4.509466 14.48285,0 c 13.1067,0 15.09557,0.193878 20.93128,2.040403 9.55882,3.024587 14.7996,6.514045 18.97141,12.63171 8.59277,12.600686 12.18676,35.259151 12.22532,77.075031 0.0262,28.41684 -0.72863,34.93156 -5.84183,50.4196 -5.0331,15.24536 -13.60366,26.6887 -23.68622,31.62565 -4.51867,2.21257 -4.94916,2.26233 -19.34482,2.23594 -11.93812,-0.0219 -15.5313,-0.3062 -18.99455,-1.50301 z m 45.1855,-91.502319 c 0,-1.122514 -7.22191,-10.93954 -10.34573,-14.063365 -6.35635,-6.356355 -11.78317,-6.50605 -15.86816,-0.437717 -2.12364,3.154721 -3.8767,8.790062 -3.11687,10.019474 0.27448,0.444114 1.68593,0.823278 3.13656,0.842594 1.45063,0.01934 7.47283,0.909181 13.38267,1.97749 12.25486,2.215297 12.81153,2.287483 12.81153,1.661524 z"
     id="path4167"
     inkscape:connector-curvature="0" /><path
     style="opacity:1;fill:#ffffff;fill-opacity:1;stroke:none;stroke-width:46.74399948;stroke-miterlimit:4;stroke-dasharray:none;stroke-opacity:1"
     d="M 42.870567,24.16181 C 51.540976,15.405695 58.712425,8.1937175 58.807118,8.1351931 c 0.0947,-0.058525 0.172173,5.7018049 0.172173,12.8007309 l 0,12.907139 -3.229754,3.119477 -3.229751,3.11948 -12.7068,0 -12.7068,0 15.764381,-15.92021 z"
     id="path4169"
     inkscape:connector-curvature="0" /></svg>