<?xml version="1.0" encoding="utf-8"?>
<svg id="svg2" width="4960.625" height="4960.625" viewBox="0 0 4960.625 4960.625" xmlns="http://www.w3.org/2000/svg" xmlns:bx="https://boxy-svg.com">
  <g id="g10" transform="matrix(1.25,0,0,-1.25,0,4960.625)">
    <g id="g12" transform="scale(0.270552,0.270552)">
      <path d="M 8122.5 6772.349 L 8648.426 6772.349 L 8648.426 7298.275 L 8122.5 7298.275 L 8122.5 6772.349 Z" style="fill:#e93d32;fill-opacity:1;fill-rule:nonzero;stroke:none" id="path34" bx:origin="0.5 0.5"/>
      <path d="M 7070.36 4142.989 L 7596.286 4142.989 L 7596.286 4668.916 L 7070.36 4668.916 L 7070.36 4142.989 Z" style="fill:#bf1b2c;fill-opacity:1;fill-rule:nonzero;stroke:none" id="path36" bx:origin="0.5 0.5"/>
      <path d="M 8648.43 7824.169 L 9174.352 7824.169 L 9174.352 8350.096 L 8648.43 8350.096 L 8648.43 7824.169 Z" style="fill:#e93d32;fill-opacity:1;fill-rule:nonzero;stroke:none" id="path38" bx:origin="0.5 0.5"/>
      <path d="M 11277.6 9401.199 L 11803.487 9401.199 L 11803.487 9927.117 L 11277.6 9927.117 L 11277.6 9401.199 Z" style="fill:#2e2a2b;fill-opacity:1;fill-rule:nonzero;stroke:none" id="path40" bx:origin="0.5 0.5"/>
      <path d="M 9699.91 9927.1 L 10225.797 9927.1 L 10225.797 10453.014 L 9699.91 10453.014 L 9699.91 9927.1 Z" style="fill:#bf1b2c;fill-opacity:1;fill-rule:nonzero;stroke:none" id="path42" bx:origin="0.5 0.5"/>
      <path d="M 10225.8 8875.309 L 10751.722 8875.309 L 10751.722 9401.201 L 10225.8 9401.201 L 10225.8 8875.309 Z" style="fill:#e93d32;fill-opacity:1;fill-rule:nonzero;stroke:none" id="path44" bx:origin="0.5 0.5"/>
      <path d="M 3914.85 10453 L 4440.772 10453 L 4440.772 10978.914 L 3914.85 10978.914 L 3914.85 10453 Z" style="fill:#2e2a2b;fill-opacity:1;fill-rule:nonzero;stroke:none" id="path46" bx:origin="0.5 0.5"/>
      <path d="M 4440.77 10453 L 4966.696 10453 L 4966.696 10978.914 L 4440.77 10978.914 L 4440.77 10453 Z" style="fill:#2e2a2b;fill-opacity:1;fill-rule:nonzero;stroke:none" id="path48" bx:origin="0.5 0.5"/>
      <path d="M 4966.7 10453 L 5492.587 10453 L 5492.587 10978.914 L 4966.7 10978.914 L 4966.7 10453 Z" style="fill:#2e2a2b;fill-opacity:1;fill-rule:nonzero;stroke:none" id="path50" bx:origin="0.5 0.5"/>
      <path d="M 5492.58 10453 L 6018.506 10453 L 6018.506 10978.914 L 5492.58 10978.914 L 5492.58 10453 Z" style="fill:#2e2a2b;fill-opacity:1;fill-rule:nonzero;stroke:none" id="path52" bx:origin="0.5 0.5"/>
      <path d="M 8648.05 10453 L 9173.976 10453 L 9173.976 10978.914 L 8648.05 10978.914 L 8648.05 10453 Z" style="fill:#2e2a2b;fill-opacity:1;fill-rule:nonzero;stroke:none" id="path54" bx:origin="0.5 0.5"/>
      <path d="M 9173.98 10453 L 9699.906 10453 L 9699.906 10978.914 L 9173.98 10978.914 L 9173.98 10453 Z" style="fill:#2e2a2b;fill-opacity:1;fill-rule:nonzero;stroke:none" id="path56" bx:origin="0.5 0.5"/>
      <path d="M 9699.91 10453 L 10225.797 10453 L 10225.797 10978.914 L 9699.91 10978.914 L 9699.91 10453 Z" style="fill:#2e2a2b;fill-opacity:1;fill-rule:nonzero;stroke:none" id="path58" bx:origin="0.5 0.5"/>
      <path d="M 10225.8 10453 L 10751.722 10453 L 10751.722 10978.914 L 10225.8 10978.914 L 10225.8 10453 Z" style="fill:#2e2a2b;fill-opacity:1;fill-rule:nonzero;stroke:none" id="path60" bx:origin="0.5 0.5"/>
      <path d="M 3388.94 9927.1 L 3914.846 9927.1 L 3914.846 10453.014 L 3388.94 10453.014 L 3388.94 9927.1 Z" style="fill:#2e2a2b;fill-opacity:1;fill-rule:nonzero;stroke:none" id="path62" bx:origin="0.5 0.5"/>
      <path d="M 3914.85 9927.1 L 4440.772 9927.1 L 4440.772 10453.014 L 3914.85 10453.014 L 3914.85 9927.1 Z" style="fill:#e93d32;fill-opacity:1;fill-rule:nonzero;stroke:none" id="path64" bx:origin="0.5 0.5"/>
      <path d="M 4440.77 9927.1 L 4966.696 9927.1 L 4966.696 10453.014 L 4440.77 10453.014 L 4440.77 9927.1 Z" style="fill:#e93d32;fill-opacity:1;fill-rule:nonzero;stroke:none" id="path66" bx:origin="0.5 0.5"/>
      <path d="M 4966.7 9927.1 L 5492.587 9927.1 L 5492.587 10453.014 L 4966.7 10453.014 L 4966.7 9927.1 Z" style="fill:#e93d32;fill-opacity:1;fill-rule:nonzero;stroke:none" id="path68" bx:origin="0.5 0.5"/>
      <path d="M 5492.58 9927.1 L 6018.506 9927.1 L 6018.506 10453.014 L 5492.58 10453.014 L 5492.58 9927.1 Z" style="fill:#e93d32;fill-opacity:1;fill-rule:nonzero;stroke:none" id="path70" bx:origin="0.5 0.5"/>
      <path d="M 6018.51 9927.1 L 6544.432 9927.1 L 6544.432 10453.014 L 6018.51 10453.014 L 6018.51 9927.1 Z" style="fill:#2e2a2b;fill-opacity:1;fill-rule:nonzero;stroke:none" id="path72" bx:origin="0.5 0.5"/>
      <path d="M 8122.17 9927.1 L 8648.057 9927.1 L 8648.057 10453.014 L 8122.17 10453.014 L 8122.17 9927.1 Z" style="fill:#2e2a2b;fill-opacity:1;fill-rule:nonzero;stroke:none" id="path74" bx:origin="0.5 0.5"/>
      <path d="M 8648.05 9927.1 L 9173.976 9927.1 L 9173.976 10453.014 L 8648.05 10453.014 L 8648.05 9927.1 Z" style="fill:#bf1b2c;fill-opacity:1;fill-rule:nonzero;stroke:none" id="path76" bx:origin="0.5 0.5"/>
      <path d="M 9173.98 9927.1 L 9699.906 9927.1 L 9699.906 10453.014 L 9173.98 10453.014 L 9173.98 9927.1 Z" style="fill:#bf1b2c;fill-opacity:1;fill-rule:nonzero;stroke:none" id="path78" bx:origin="0.5 0.5"/>
      <path d="M 10225.8 9927.1 L 10751.722 9927.1 L 10751.722 10453.014 L 10225.8 10453.014 L 10225.8 9927.1 Z" style="fill:#bf1b2c;fill-opacity:1;fill-rule:nonzero;stroke:none" id="path80" bx:origin="0.5 0.5"/>
      <path d="M 10751.7 9927.1 L 11277.626 9927.1 L 11277.626 10453.014 L 10751.7 10453.014 L 10751.7 9927.1 Z" style="fill:#2e2a2b;fill-opacity:1;fill-rule:nonzero;stroke:none" id="path82" bx:origin="0.5 0.5"/>
      <path d="M 2863.03 9401.199 L 3388.944 9401.199 L 3388.944 9927.117 L 2863.03 9927.117 L 2863.03 9401.199 Z" style="fill:#2e2a2b;fill-opacity:1;fill-rule:nonzero;stroke:none" id="path84" bx:origin="0.5 0.5"/>
      <path d="M 3388.94 9401.199 L 3914.846 9401.199 L 3914.846 9927.117 L 3388.94 9927.117 L 3388.94 9401.199 Z" style="fill:#e93d32;fill-opacity:1;fill-rule:nonzero;stroke:none" id="path86" bx:origin="0.5 0.5"/>
      <path d="M 3914.85 9401.199 L 4440.772 9401.199 L 4440.772 9927.117 L 3914.85 9927.117 L 3914.85 9401.199 Z" style="fill:#e93d32;fill-opacity:1;fill-rule:nonzero;stroke:none" id="path88" bx:origin="0.5 0.5"/>
      <path d="M 4440.77 9401.199 L 4966.696 9401.199 L 4966.696 9927.117 L 4440.77 9927.117 L 4440.77 9401.199 Z" style="fill:#fcd0c4;fill-opacity:1;fill-rule:nonzero;stroke:none" id="path90" bx:origin="0.5 0.5"/>
      <path d="M 4966.7 9401.199 L 5492.587 9401.199 L 5492.587 9927.117 L 4966.7 9927.117 L 4966.7 9401.199 Z" style="fill:#f8a48f;fill-opacity:1;fill-rule:nonzero;stroke:none" id="path92" bx:origin="0.5 0.5"/>
      <path d="M 5492.58 9401.199 L 6018.506 9401.199 L 6018.506 9927.117 L 5492.58 9927.117 L 5492.58 9401.199 Z" style="fill:#e93d32;fill-opacity:1;fill-rule:nonzero;stroke:none" id="path94" bx:origin="0.5 0.5"/>
      <path d="M 6018.51 9401.199 L 6544.432 9401.199 L 6544.432 9927.117 L 6018.51 9927.117 L 6018.51 9401.199 Z" style="fill:#e93d32;fill-opacity:1;fill-rule:nonzero;stroke:none" id="path96" bx:origin="0.5 0.5"/>
      <path d="M 6544.43 9401.199 L 7070.321 9401.199 L 7070.321 9927.117 L 6544.43 9927.117 L 6544.43 9401.199 Z" style="fill:#2e2a2b;fill-opacity:1;fill-rule:nonzero;stroke:none" id="path98" bx:origin="0.5 0.5"/>
      <path d="M 7596.24 9401.199 L 8122.166 9401.199 L 8122.166 9927.117 L 7596.24 9927.117 L 7596.24 9401.199 Z" style="fill:#2e2a2b;fill-opacity:1;fill-rule:nonzero;stroke:none" id="path100" bx:origin="0.5 0.5"/>
      <path d="M 8122.17 9401.199 L 8648.057 9401.199 L 8648.057 9927.117 L 8122.17 9927.117 L 8122.17 9401.199 Z" style="fill:#bf1b2c;fill-opacity:1;fill-rule:nonzero;stroke:none" id="path102" bx:origin="0.5 0.5"/>
      <path d="M 8648.05 9401.199 L 9173.976 9401.199 L 9173.976 9927.117 L 8648.05 9927.117 L 8648.05 9401.199 Z" style="fill:#e93d32;fill-opacity:1;fill-rule:nonzero;stroke:none" id="path104" bx:origin="0.5 0.5"/>
      <path d="M 9173.98 9401.199 L 9699.906 9401.199 L 9699.906 9927.117 L 9173.98 9927.117 L 9173.98 9401.199 Z" style="fill:#e93d32;fill-opacity:1;fill-rule:nonzero;stroke:none" id="path106" bx:origin="0.5 0.5"/>
      <path d="M 10225.8 9401.199 L 10751.722 9401.199 L 10751.722 9927.117 L 10225.8 9927.117 L 10225.8 9401.199 Z" style="fill:#bf1b2c;fill-opacity:1;fill-rule:nonzero;stroke:none" id="path108" bx:origin="0.5 0.5"/>
      <path d="M 10751.7 9401.199 L 11277.626 9401.199 L 11277.626 9927.117 L 10751.7 9927.117 L 10751.7 9401.199 Z" style="fill:#bf1b2c;fill-opacity:1;fill-rule:nonzero;stroke:none" id="path110" bx:origin="0.5 0.5"/>
      <path d="M 2863.03 8875.309 L 3388.944 8875.309 L 3388.944 9401.201 L 2863.03 9401.201 L 2863.03 8875.309 Z" style="fill:#2e2a2b;fill-opacity:1;fill-rule:nonzero;stroke:none" id="path112" bx:origin="0.5 0.5"/>
      <path d="M 3388.94 8875.309 L 3914.846 8875.309 L 3914.846 9401.201 L 3388.94 9401.201 L 3388.94 8875.309 Z" style="fill:#e93d32;fill-opacity:1;fill-rule:nonzero;stroke:none" id="path114" bx:origin="0.5 0.5"/>
      <path d="M 3914.85 8875.309 L 4440.772 8875.309 L 4440.772 9401.201 L 3914.85 9401.201 L 3914.85 8875.309 Z" style="fill:#fcd0c4;fill-opacity:1;fill-rule:nonzero;stroke:none" id="path116" bx:origin="0.5 0.5"/>
      <path d="M 4440.77 8875.309 L 4966.696 8875.309 L 4966.696 9401.201 L 4440.77 9401.201 L 4440.77 8875.309 Z" style="fill:#f8a48f;fill-opacity:1;fill-rule:nonzero;stroke:none" id="path118" bx:origin="0.5 0.5"/>
      <path d="M 4966.7 8875.309 L 5492.587 8875.309 L 5492.587 9401.201 L 4966.7 9401.201 L 4966.7 8875.309 Z" style="fill:#e93d32;fill-opacity:1;fill-rule:nonzero;stroke:none" id="path120" bx:origin="0.5 0.5"/>
      <path d="M 5492.58 8875.309 L 6018.506 8875.309 L 6018.506 9401.201 L 5492.58 9401.201 L 5492.58 8875.309 Z" style="fill:#e93d32;fill-opacity:1;fill-rule:nonzero;stroke:none" id="path122" bx:origin="0.5 0.5"/>
      <path d="M 6018.51 8875.309 L 6544.432 8875.309 L 6544.432 9401.201 L 6018.51 9401.201 L 6018.51 8875.309 Z" style="fill:#e93d32;fill-opacity:1;fill-rule:nonzero;stroke:none" id="path124" bx:origin="0.5 0.5"/>
      <path d="M 6544.43 8875.309 L 7070.321 8875.309 L 7070.321 9401.201 L 6544.43 9401.201 L 6544.43 8875.309 Z" style="fill:#e93d32;fill-opacity:1;fill-rule:nonzero;stroke:none" id="path126" bx:origin="0.5 0.5"/>
      <path d="M 7596.24 8875.309 L 8122.166 8875.309 L 8122.166 9401.201 L 7596.24 9401.201 L 7596.24 8875.309 Z" style="fill:#bf1b2c;fill-opacity:1;fill-rule:nonzero;stroke:none" id="path128" bx:origin="0.5 0.5"/>
      <path d="M 8122.17 8875.309 L 8648.057 8875.309 L 8648.057 9401.201 L 8122.17 9401.201 L 8122.17 8875.309 Z" style="fill:#e93d32;fill-opacity:1;fill-rule:nonzero;stroke:none" id="path130" bx:origin="0.5 0.5"/>
      <path d="M 8648.05 8875.309 L 9173.976 8875.309 L 9173.976 9401.201 L 8648.05 9401.201 L 8648.05 8875.309 Z" style="fill:#e93d32;fill-opacity:1;fill-rule:nonzero;stroke:none" id="path132" bx:origin="0.5 0.5"/>
      <path d="M 9173.98 8875.309 L 9699.906 8875.309 L 9699.906 9401.201 L 9173.98 9401.201 L 9173.98 8875.309 Z" style="fill:#e93d32;fill-opacity:1;fill-rule:nonzero;stroke:none" id="path134" bx:origin="0.5 0.5"/>
      <path d="M 9699.91 8875.309 L 10225.797 8875.309 L 10225.797 9401.201 L 9699.91 9401.201 L 9699.91 8875.309 Z" style="fill:#e93d32;fill-opacity:1;fill-rule:nonzero;stroke:none" id="path136" bx:origin="0.5 0.5"/>
      <path d="M 10751.7 8875.309 L 11277.626 8875.309 L 11277.626 9401.201 L 10751.7 9401.201 L 10751.7 8875.309 Z" style="fill:#bf1b2c;fill-opacity:1;fill-rule:nonzero;stroke:none" id="path138" bx:origin="0.5 0.5"/>
      <path d="M 11277.6 8875.309 L 11803.487 8875.309 L 11803.487 9401.201 L 11277.6 9401.201 L 11277.6 8875.309 Z" style="fill:#2e2a2b;fill-opacity:1;fill-rule:nonzero;stroke:none" id="path140" bx:origin="0.5 0.5"/>
      <path d="M 2863.39 8350.09 L 3389.3 8350.09 L 3389.3 8876.012 L 2863.39 8876.012 L 2863.39 8350.09 Z" style="fill:#2e2a2b;fill-opacity:1;fill-rule:nonzero;stroke:none" id="path142" bx:origin="0.5 0.5"/>
      <path d="M 3389.3 8350.09 L 3915.214 8350.09 L 3915.214 8876.012 L 3389.3 8876.012 L 3389.3 8350.09 Z" style="fill:#e93d32;fill-opacity:1;fill-rule:nonzero;stroke:none" id="path144" bx:origin="0.5 0.5"/>
      <path d="M 3915.21 8350.09 L 4441.136 8350.09 L 4441.136 8876.012 L 3915.21 8876.012 L 3915.21 8350.09 Z" style="fill:#e93d32;fill-opacity:1;fill-rule:nonzero;stroke:none" id="path146" bx:origin="0.5 0.5"/>
      <path d="M 4441.14 8350.09 L 4967.027 8350.09 L 4967.027 8876.012 L 4441.14 8876.012 L 4441.14 8350.09 Z" style="fill:#e93d32;fill-opacity:1;fill-rule:nonzero;stroke:none" id="path148" bx:origin="0.5 0.5"/>
      <path d="M 4967.03 8350.09 L 5492.956 8350.09 L 5492.956 8876.012 L 4967.03 8876.012 L 4967.03 8350.09 Z" style="fill:#e93d32;fill-opacity:1;fill-rule:nonzero;stroke:none" id="path150" bx:origin="0.5 0.5"/>
      <path d="M 5492.95 8350.09 L 6018.872 8350.09 L 6018.872 8876.012 L 5492.95 8876.012 L 5492.95 8350.09 Z" style="fill:#e93d32;fill-opacity:1;fill-rule:nonzero;stroke:none" id="path152" bx:origin="0.5 0.5"/>
      <path d="M 6018.88 8350.09 L 6544.771 8350.09 L 6544.771 8876.012 L 6018.88 8876.012 L 6018.88 8350.09 Z" style="fill:#e93d32;fill-opacity:1;fill-rule:nonzero;stroke:none" id="path154" bx:origin="0.5 0.5"/>
      <path d="M 6544.77 8350.09 L 7070.692 8350.09 L 7070.692 8876.012 L 6544.77 8876.012 L 6544.77 8350.09 Z" style="fill:#e93d32;fill-opacity:1;fill-rule:nonzero;stroke:none" id="path156" bx:origin="0.5 0.5"/>
      <path d="M 7070.69 8350.09 L 7596.616 8350.09 L 7596.616 8876.012 L 7070.69 8876.012 L 7070.69 8350.09 Z" style="fill:#bf1b2c;fill-opacity:1;fill-rule:nonzero;stroke:none" id="path158" bx:origin="0.5 0.5"/>
      <path d="M 7596.61 8350.09 L 8122.497 8350.09 L 8122.497 8876.012 L 7596.61 8876.012 L 7596.61 8350.09 Z" style="fill:#e93d32;fill-opacity:1;fill-rule:nonzero;stroke:none" id="path160" bx:origin="0.5 0.5"/>
      <path d="M 8122.5 8350.09 L 8648.426 8350.09 L 8648.426 8876.012 L 8122.5 8876.012 L 8122.5 8350.09 Z" style="fill:#e93d32;fill-opacity:1;fill-rule:nonzero;stroke:none" id="path162" bx:origin="0.5 0.5"/>
      <path d="M 8648.43 8350.09 L 9174.352 8350.09 L 9174.352 8876.012 L 8648.43 8876.012 L 8648.43 8350.09 Z" style="fill:#e93d32;fill-opacity:1;fill-rule:nonzero;stroke:none" id="path164" bx:origin="0.5 0.5"/>
      <path d="M 9174.35 8350.09 L 9700.276 8350.09 L 9700.276 8876.012 L 9174.35 8876.012 L 9174.35 8350.09 Z" style="fill:#e93d32;fill-opacity:1;fill-rule:nonzero;stroke:none" id="path166" bx:origin="0.5 0.5"/>
      <path d="M 9700.27 8350.09 L 10226.157 8350.09 L 10226.157 8876.012 L 9700.27 8876.012 L 9700.27 8350.09 Z" style="fill:#e93d32;fill-opacity:1;fill-rule:nonzero;stroke:none" id="path168" bx:origin="0.5 0.5"/>
      <path d="M 10226.2 8350.09 L 10752.126 8350.09 L 10752.126 8876.012 L 10226.2 8876.012 L 10226.2 8350.09 Z" style="fill:#e93d32;fill-opacity:1;fill-rule:nonzero;stroke:none" id="path170" bx:origin="0.5 0.5"/>
      <path d="M 10752.1 8350.09 L 11278.026 8350.09 L 11278.026 8876.012 L 10752.1 8876.012 L 10752.1 8350.09 Z" style="fill:#bf1b2c;fill-opacity:1;fill-rule:nonzero;stroke:none" id="path172" bx:origin="0.5 0.5"/>
      <path d="M 11278 8350.09 L 11803.887 8350.09 L 11803.887 8876.012 L 11278 8876.012 L 11278 8350.09 Z" style="fill:#2e2a2b;fill-opacity:1;fill-rule:nonzero;stroke:none" id="path174" bx:origin="0.5 0.5"/>
      <path d="M 3389.3 7824.169 L 3915.214 7824.169 L 3915.214 8350.096 L 3389.3 8350.096 L 3389.3 7824.169 Z" style="fill:#2e2a2b;fill-opacity:1;fill-rule:nonzero;stroke:none" id="path176" bx:origin="0.5 0.5"/>
      <path d="M 3915.21 7824.169 L 4441.136 7824.169 L 4441.136 8350.096 L 3915.21 8350.096 L 3915.21 7824.169 Z" style="fill:#e93d32;fill-opacity:1;fill-rule:nonzero;stroke:none" id="path178" bx:origin="0.5 0.5"/>
      <path d="M 4441.14 7824.169 L 4967.027 7824.169 L 4967.027 8350.096 L 4441.14 8350.096 L 4441.14 7824.169 Z" style="fill:#e93d32;fill-opacity:1;fill-rule:nonzero;stroke:none" id="path180" bx:origin="0.5 0.5"/>
      <path d="M 4967.03 7824.169 L 5492.956 7824.169 L 5492.956 8350.096 L 4967.03 8350.096 L 4967.03 7824.169 Z" style="fill:#e93d32;fill-opacity:1;fill-rule:nonzero;stroke:none" id="path182" bx:origin="0.5 0.5"/>
      <path d="M 5492.95 7824.169 L 6018.872 7824.169 L 6018.872 8350.096 L 5492.95 8350.096 L 5492.95 7824.169 Z" style="fill:#e93d32;fill-opacity:1;fill-rule:nonzero;stroke:none" id="path184" bx:origin="0.5 0.5"/>
      <path d="M 6018.88 7824.169 L 6544.771 7824.169 L 6544.771 8350.096 L 6018.88 8350.096 L 6018.88 7824.169 Z" style="fill:#e93d32;fill-opacity:1;fill-rule:nonzero;stroke:none" id="path186" bx:origin="0.5 0.5"/>
      <path d="M 6544.77 7824.169 L 7070.731 7824.169 L 7070.731 8350.096 L 6544.77 8350.096 L 6544.77 7824.169 Z" style="fill:#e93d32;fill-opacity:1;fill-rule:nonzero;stroke:none" id="path188" bx:origin="0.5 0.5"/>
      <path d="M 7070.73 7824.169 L 7596.617 7824.169 L 7596.617 8350.096 L 7070.73 8350.096 L 7070.73 7824.169 Z" style="fill:#e93d32;fill-opacity:1;fill-rule:nonzero;stroke:none" id="path190" bx:origin="0.5 0.5"/>
      <path d="M 7596.61 7824.169 L 8122.497 7824.169 L 8122.497 8350.096 L 7596.61 8350.096 L 7596.61 7824.169 Z" style="fill:#e93d32;fill-opacity:1;fill-rule:nonzero;stroke:none" id="path192" bx:origin="0.5 0.5"/>
      <path d="M 8122.5 7824.169 L 8648.426 7824.169 L 8648.426 8350.096 L 8122.5 8350.096 L 8122.5 7824.169 Z" style="fill:#e93d32;fill-opacity:1;fill-rule:nonzero;stroke:none" id="path194" bx:origin="0.5 0.5"/>
      <path d="M 9174.35 7824.169 L 9700.276 7824.169 L 9700.276 8350.096 L 9174.35 8350.096 L 9174.35 7824.169 Z" style="fill:#e93d32;fill-opacity:1;fill-rule:nonzero;stroke:none" id="path196" bx:origin="0.5 0.5"/>
      <path d="M 9700.27 7824.169 L 10226.157 7824.169 L 10226.157 8350.096 L 9700.27 8350.096 L 9700.27 7824.169 Z" style="fill:#e93d32;fill-opacity:1;fill-rule:nonzero;stroke:none" id="path198" bx:origin="0.5 0.5"/>
      <path d="M 10226.2 7824.169 L 10752.126 7824.169 L 10752.126 8350.096 L 10226.2 8350.096 L 10226.2 7824.169 Z" style="fill:#bf1b2c;fill-opacity:1;fill-rule:nonzero;stroke:none" id="path200" bx:origin="0.5 0.5"/>
      <path d="M 10752.1 7824.169 L 11278.026 7824.169 L 11278.026 8350.096 L 10752.1 8350.096 L 10752.1 7824.169 Z" style="fill:#2e2a2b;fill-opacity:1;fill-rule:nonzero;stroke:none" id="path202" bx:origin="0.5 0.5"/>
      <path d="M 3389.3 7298.28 L 3915.214 7298.28 L 3915.214 7824.167 L 3389.3 7824.167 L 3389.3 7298.28 Z" style="fill:#2e2a2b;fill-opacity:1;fill-rule:nonzero;stroke:none" id="path204" bx:origin="0.5 0.5"/>
      <path d="M 3915.21 7298.28 L 4441.136 7298.28 L 4441.136 7824.167 L 3915.21 7824.167 L 3915.21 7298.28 Z" style="fill:#e93d32;fill-opacity:1;fill-rule:nonzero;stroke:none" id="path206" bx:origin="0.5 0.5"/>
      <path d="M 4441.14 7298.28 L 4967.027 7298.28 L 4967.027 7824.167 L 4441.14 7824.167 L 4441.14 7298.28 Z" style="fill:#e93d32;fill-opacity:1;fill-rule:nonzero;stroke:none" id="path208" bx:origin="0.5 0.5"/>
      <path d="M 4967.03 7298.28 L 5492.956 7298.28 L 5492.956 7824.167 L 4967.03 7824.167 L 4967.03 7298.28 Z" style="fill:#e93d32;fill-opacity:1;fill-rule:nonzero;stroke:none" id="path210" bx:origin="0.5 0.5"/>
      <path d="M 5492.95 7298.28 L 6018.872 7298.28 L 6018.872 7824.167 L 5492.95 7824.167 L 5492.95 7298.28 Z" style="fill:#e93d32;fill-opacity:1;fill-rule:nonzero;stroke:none" id="path212" bx:origin="0.5 0.5"/>
      <path d="M 6018.88 7298.28 L 6544.771 7298.28 L 6544.771 7824.167 L 6018.88 7824.167 L 6018.88 7298.28 Z" style="fill:#e93d32;fill-opacity:1;fill-rule:nonzero;stroke:none" id="path214" bx:origin="0.5 0.5"/>
      <path d="M 6544.77 7298.28 L 7070.692 7298.28 L 7070.692 7824.167 L 6544.77 7824.167 L 6544.77 7298.28 Z" style="fill:#e93d32;fill-opacity:1;fill-rule:nonzero;stroke:none" id="path216" bx:origin="0.5 0.5"/>
      <path d="M 7070.69 7298.28 L 7596.616 7298.28 L 7596.616 7824.167 L 7070.69 7824.167 L 7070.69 7298.28 Z" style="fill:#e93d32;fill-opacity:1;fill-rule:nonzero;stroke:none" id="path218" bx:origin="0.5 0.5"/>
      <path d="M 7596.61 7298.28 L 8122.497 7298.28 L 8122.497 7824.167 L 7596.61 7824.167 L 7596.61 7298.28 Z" style="fill:#e93d32;fill-opacity:1;fill-rule:nonzero;stroke:none" id="path220" bx:origin="0.5 0.5"/>
      <path d="M 8122.5 7298.28 L 8648.426 7298.28 L 8648.426 7824.167 L 8122.5 7824.167 L 8122.5 7298.28 Z" style="fill:#e93d32;fill-opacity:1;fill-rule:nonzero;stroke:none" id="path222" bx:origin="0.5 0.5"/>
      <path d="M 8648.43 7298.28 L 9174.352 7298.28 L 9174.352 7824.167 L 8648.43 7824.167 L 8648.43 7298.28 Z" style="fill:#e93d32;fill-opacity:1;fill-rule:nonzero;stroke:none" id="path224" bx:origin="0.5 0.5"/>
      <path d="M 9174.35 7298.28 L 9700.276 7298.28 L 9700.276 7824.167 L 9174.35 7824.167 L 9174.35 7298.28 Z" style="fill:#e93d32;fill-opacity:1;fill-rule:nonzero;stroke:none" id="path226" bx:origin="0.5 0.5"/>
      <path d="M 9700.27 7298.28 L 10226.157 7298.28 L 10226.157 7824.167 L 9700.27 7824.167 L 9700.27 7298.28 Z" style="fill:#e93d32;fill-opacity:1;fill-rule:nonzero;stroke:none" id="path228" bx:origin="0.5 0.5"/>
      <path d="M 10226.2 7298.28 L 10752.126 7298.28 L 10752.126 7824.167 L 10226.2 7824.167 L 10226.2 7298.28 Z" style="fill:#bf1b2c;fill-opacity:1;fill-rule:nonzero;stroke:none" id="path230" bx:origin="0.5 0.5"/>
      <path d="M 10752.1 7298.28 L 11278.026 7298.28 L 11278.026 7824.167 L 10752.1 7824.167 L 10752.1 7298.28 Z" style="fill:#2e2a2b;fill-opacity:1;fill-rule:nonzero;stroke:none" id="path232" bx:origin="0.5 0.5"/>
      <path d="M 3915.21 6772.349 L 4441.136 6772.349 L 4441.136 7298.275 L 3915.21 7298.275 L 3915.21 6772.349 Z" style="fill:#2e2a2b;fill-opacity:1;fill-rule:nonzero;stroke:none" id="path234" bx:origin="0.5 0.5"/>
      <path d="M 4441.14 6772.349 L 4967.027 6772.349 L 4967.027 7298.275 L 4441.14 7298.275 L 4441.14 6772.349 Z" style="fill:#e93d32;fill-opacity:1;fill-rule:nonzero;stroke:none" id="path236" bx:origin="0.5 0.5"/>
      <path d="M 4967.03 6772.349 L 5492.956 6772.349 L 5492.956 7298.275 L 4967.03 7298.275 L 4967.03 6772.349 Z" style="fill:#e93d32;fill-opacity:1;fill-rule:nonzero;stroke:none" id="path238" bx:origin="0.5 0.5"/>
      <path d="M 5492.95 6772.349 L 6018.872 6772.349 L 6018.872 7298.275 L 5492.95 7298.275 L 5492.95 6772.349 Z" style="fill:#e93d32;fill-opacity:1;fill-rule:nonzero;stroke:none" id="path240" bx:origin="0.5 0.5"/>
      <path d="M 6018.88 6772.349 L 6544.771 6772.349 L 6544.771 7298.275 L 6018.88 7298.275 L 6018.88 6772.349 Z" style="fill:#e93d32;fill-opacity:1;fill-rule:nonzero;stroke:none" id="path242" bx:origin="0.5 0.5"/>
      <path d="M 6544.77 6772.349 L 7070.731 6772.349 L 7070.731 7298.275 L 6544.77 7298.275 L 6544.77 6772.349 Z" style="fill:#e93d32;fill-opacity:1;fill-rule:nonzero;stroke:none" id="path244" bx:origin="0.5 0.5"/>
      <path d="M 7596.61 6772.349 L 8122.497 6772.349 L 8122.497 7298.275 L 7596.61 7298.275 L 7596.61 6772.349 Z" style="fill:#e93d32;fill-opacity:1;fill-rule:nonzero;stroke:none" id="path246" bx:origin="0.5 0.5"/>
      <path d="M 8648.43 6772.349 L 9174.352 6772.349 L 9174.352 7298.275 L 8648.43 7298.275 L 8648.43 6772.349 Z" style="fill:#e93d32;fill-opacity:1;fill-rule:nonzero;stroke:none" id="path248" bx:origin="0.5 0.5"/>
      <path d="M 9174.35 6772.349 L 9700.276 6772.349 L 9700.276 7298.275 L 9174.35 7298.275 L 9174.35 6772.349 Z" style="fill:#e93d32;fill-opacity:1;fill-rule:nonzero;stroke:none" id="path250" bx:origin="0.5 0.5"/>
      <path d="M 9700.27 6772.349 L 10226.157 6772.349 L 10226.157 7298.275 L 9700.27 7298.275 L 9700.27 6772.349 Z" style="fill:#bf1b2c;fill-opacity:1;fill-rule:nonzero;stroke:none" id="path252" bx:origin="0.5 0.5"/>
      <path d="M 10226.2 6772.349 L 10752.126 6772.349 L 10752.126 7298.275 L 10226.2 7298.275 L 10226.2 6772.349 Z" style="fill:#2e2a2b;fill-opacity:1;fill-rule:nonzero;stroke:none" id="path254" bx:origin="0.5 0.5"/>
      <path d="M 4440.44 6245.949 L 4966.366 6245.949 L 4966.366 6771.875 L 4440.44 6771.875 L 4440.44 6245.949 Z" style="fill:#2e2a2b;fill-opacity:1;fill-rule:nonzero;stroke:none" id="path256" bx:origin="0.5 0.5"/>
      <path d="M 4966.36 6245.949 L 5492.247 6245.949 L 5492.247 6771.875 L 4966.36 6771.875 L 4966.36 6245.949 Z" style="fill:#e93d32;fill-opacity:1;fill-rule:nonzero;stroke:none" id="path258" bx:origin="0.5 0.5"/>
      <path d="M 5492.25 6245.949 L 6018.176 6245.949 L 6018.176 6771.875 L 5492.25 6771.875 L 5492.25 6245.949 Z" style="fill:#e93d32;fill-opacity:1;fill-rule:nonzero;stroke:none" id="path260" bx:origin="0.5 0.5"/>
      <path d="M 6018.18 6245.949 L 6544.102 6245.949 L 6544.102 6771.875 L 6018.18 6771.875 L 6018.18 6245.949 Z" style="fill:#e93d32;fill-opacity:1;fill-rule:nonzero;stroke:none" id="path262" bx:origin="0.5 0.5"/>
      <path d="M 6544.1 6245.949 L 7069.991 6245.949 L 7069.991 6771.875 L 6544.1 6771.875 L 6544.1 6245.949 Z" style="fill:#e93d32;fill-opacity:1;fill-rule:nonzero;stroke:none" id="path264" bx:origin="0.5 0.5"/>
      <path d="M 7069.99 6245.949 L 7595.912 6245.949 L 7595.912 6771.875 L 7069.99 6771.875 L 7069.99 6245.949 Z" style="fill:#e93d32;fill-opacity:1;fill-rule:nonzero;stroke:none" id="path266" bx:origin="0.5 0.5"/>
      <path d="M 7595.91 6245.949 L 8121.836 6245.949 L 8121.836 6771.875 L 7595.91 6771.875 L 7595.91 6245.949 Z" style="fill:#e93d32;fill-opacity:1;fill-rule:nonzero;stroke:none" id="path268" bx:origin="0.5 0.5"/>
      <path d="M 8121.84 6245.949 L 8647.727 6245.949 L 8647.727 6771.875 L 8121.84 6771.875 L 8121.84 6245.949 Z" style="fill:#e93d32;fill-opacity:1;fill-rule:nonzero;stroke:none" id="path270" bx:origin="0.5 0.5"/>
      <path d="M 8647.72 6245.949 L 9173.646 6245.949 L 9173.646 6771.875 L 8647.72 6771.875 L 8647.72 6245.949 Z" style="fill:#e93d32;fill-opacity:1;fill-rule:nonzero;stroke:none" id="path272" bx:origin="0.5 0.5"/>
      <path d="M 9173.65 6245.949 L 9699.572 6245.949 L 9699.572 6771.875 L 9173.65 6771.875 L 9173.65 6245.949 Z" style="fill:#bf1b2c;fill-opacity:1;fill-rule:nonzero;stroke:none" id="path274" bx:origin="0.5 0.5"/>
      <path d="M 9699.57 6245.949 L 10225.461 6245.949 L 10225.461 6771.875 L 9699.57 6771.875 L 9699.57 6245.949 Z" style="fill:#2e2a2b;fill-opacity:1;fill-rule:nonzero;stroke:none" id="path276" bx:origin="0.5 0.5"/>
      <path d="M 4966.36 5720.059 L 5492.247 5720.059 L 5492.247 6245.946 L 4966.36 6245.946 L 4966.36 5720.059 Z" style="fill:#2e2a2b;fill-opacity:1;fill-rule:nonzero;stroke:none" id="path278" bx:origin="0.5 0.5"/>
      <path d="M 5492.25 5720.059 L 6018.176 5720.059 L 6018.176 6245.946 L 5492.25 6245.946 L 5492.25 5720.059 Z" style="fill:#e93d32;fill-opacity:1;fill-rule:nonzero;stroke:none" id="path280" bx:origin="0.5 0.5"/>
      <path d="M 6018.18 5720.059 L 6544.102 5720.059 L 6544.102 6245.946 L 6018.18 6245.946 L 6018.18 5720.059 Z" style="fill:#e93d32;fill-opacity:1;fill-rule:nonzero;stroke:none" id="path282" bx:origin="0.5 0.5"/>
      <path d="M 6544.1 5720.059 L 7069.991 5720.059 L 7069.991 6245.946 L 6544.1 6245.946 L 6544.1 5720.059 Z" style="fill:#e93d32;fill-opacity:1;fill-rule:nonzero;stroke:none" id="path284" bx:origin="0.5 0.5"/>
      <path d="M 7069.99 5720.059 L 7595.912 5720.059 L 7595.912 6245.946 L 7069.99 6245.946 L 7069.99 5720.059 Z" style="fill:#e93d32;fill-opacity:1;fill-rule:nonzero;stroke:none" id="path286" bx:origin="0.5 0.5"/>
      <path d="M 7595.91 5720.059 L 8121.836 5720.059 L 8121.836 6245.946 L 7595.91 6245.946 L 7595.91 5720.059 Z" style="fill:#e93d32;fill-opacity:1;fill-rule:nonzero;stroke:none" id="path288" bx:origin="0.5 0.5"/>
      <path d="M 8121.84 5720.059 L 8647.727 5720.059 L 8647.727 6245.946 L 8121.84 6245.946 L 8121.84 5720.059 Z" style="fill:#e93d32;fill-opacity:1;fill-rule:nonzero;stroke:none" id="path290" bx:origin="0.5 0.5"/>
      <path d="M 8647.72 5720.059 L 9173.646 5720.059 L 9173.646 6245.946 L 8647.72 6245.946 L 8647.72 5720.059 Z" style="fill:#bf1b2c;fill-opacity:1;fill-rule:nonzero;stroke:none" id="path292" bx:origin="0.5 0.5"/>
      <path d="M 9173.65 5720.059 L 9699.572 5720.059 L 9699.572 6245.946 L 9173.65 6245.946 L 9173.65 5720.059 Z" style="fill:#2e2a2b;fill-opacity:1;fill-rule:nonzero;stroke:none" id="path294" bx:origin="0.5 0.5"/>
      <path d="M 5492.25 5194.139 L 6018.176 5194.139 L 6018.176 5720.065 L 5492.25 5720.065 L 5492.25 5194.139 Z" style="fill:#2e2a2b;fill-opacity:1;fill-rule:nonzero;stroke:none" id="path296" bx:origin="0.5 0.5"/>
      <path d="M 6018.18 5194.139 L 6544.102 5194.139 L 6544.102 5720.065 L 6018.18 5720.065 L 6018.18 5194.139 Z" style="fill:#e93d32;fill-opacity:1;fill-rule:nonzero;stroke:none" id="path298" bx:origin="0.5 0.5"/>
      <path d="M 6544.1 5194.139 L 7069.991 5194.139 L 7069.991 5720.065 L 6544.1 5720.065 L 6544.1 5194.139 Z" style="fill:#e93d32;fill-opacity:1;fill-rule:nonzero;stroke:none" id="path300" bx:origin="0.5 0.5"/>
      <path d="M 7069.99 5194.139 L 7595.912 5194.139 L 7595.912 5720.065 L 7069.99 5720.065 L 7069.99 5194.139 Z" style="fill:#e93d32;fill-opacity:1;fill-rule:nonzero;stroke:none" id="path302" bx:origin="0.5 0.5"/>
      <path d="M 7595.91 5194.139 L 8121.836 5194.139 L 8121.836 5720.065 L 7595.91 5720.065 L 7595.91 5194.139 Z" style="fill:#e93d32;fill-opacity:1;fill-rule:nonzero;stroke:none" id="path304" bx:origin="0.5 0.5"/>
      <path d="M 8121.84 5194.139 L 8647.727 5194.139 L 8647.727 5720.065 L 8121.84 5720.065 L 8121.84 5194.139 Z" style="fill:#bf1b2c;fill-opacity:1;fill-rule:nonzero;stroke:none" id="path306" bx:origin="0.5 0.5"/>
      <path d="M 8647.72 5194.139 L 9173.646 5194.139 L 9173.646 5720.065 L 8647.72 5720.065 L 8647.72 5194.139 Z" style="fill:#2e2a2b;fill-opacity:1;fill-rule:nonzero;stroke:none" id="path308" bx:origin="0.5 0.5"/>
      <path d="M 6018.18 4668.209 L 6544.102 4668.209 L 6544.102 5194.131 L 6018.18 5194.131 L 6018.18 4668.209 Z" style="fill:#2e2a2b;fill-opacity:1;fill-rule:nonzero;stroke:none" id="path310" bx:origin="0.5 0.5"/>
      <path d="M 6544.1 4668.209 L 7069.991 4668.209 L 7069.991 5194.131 L 6544.1 5194.131 L 6544.1 4668.209 Z" style="fill:#e93d32;fill-opacity:1;fill-rule:nonzero;stroke:none" id="path312" bx:origin="0.5 0.5"/>
      <path d="M 7069.99 4668.209 L 7595.912 4668.209 L 7595.912 5194.131 L 7069.99 5194.131 L 7069.99 4668.209 Z" style="fill:#e93d32;fill-opacity:1;fill-rule:nonzero;stroke:none" id="path314" bx:origin="0.5 0.5"/>
      <path d="M 7595.91 4668.209 L 8121.836 4668.209 L 8121.836 5194.131 L 7595.91 5194.131 L 7595.91 4668.209 Z" style="fill:#bf1b2c;fill-opacity:1;fill-rule:nonzero;stroke:none" id="path316" bx:origin="0.5 0.5"/>
      <path d="M 8121.84 4668.209 L 8647.727 4668.209 L 8647.727 5194.131 L 8121.84 5194.131 L 8121.84 4668.209 Z" style="fill:#2e2a2b;fill-opacity:1;fill-rule:nonzero;stroke:none" id="path318" bx:origin="0.5 0.5"/>
      <path d="M 6544.43 4142.989 L 7070.356 4142.989 L 7070.356 4668.916 L 6544.43 4668.916 L 6544.43 4142.989 Z" style="fill:#2e2a2b;fill-opacity:1;fill-rule:nonzero;stroke:none" id="path320" bx:origin="0.5 0.5"/>
      <path d="M 7596.28 4142.989 L 8122.202 4142.989 L 8122.202 4668.916 L 7596.28 4668.916 L 7596.28 4142.989 Z" style="fill:#2e2a2b;fill-opacity:1;fill-rule:nonzero;stroke:none" id="path322" bx:origin="0.5 0.5"/>
      <path d="M 7070.39 3617.099 L 7596.277 3617.099 L 7596.277 4142.986 L 7070.39 4142.986 L 7070.39 3617.099 Z" style="fill:#2e2a2b;fill-opacity:1;fill-rule:nonzero;stroke:none" id="path324" bx:origin="0.5 0.5"/>
      <path d="M 9699.91 9401.199 L 10225.797 9401.199 L 10225.797 9927.117 L 9699.91 9927.117 L 9699.91 9401.199 Z" style="fill:#e93d32;fill-opacity:1;fill-rule:nonzero;stroke:none" id="path326" bx:origin="0.5 0.5"/>
      <path d="M 7070.32 8875.309 L 7596.242 8875.309 L 7596.242 9401.201 L 7070.32 9401.201 L 7070.32 8875.309 Z" style="fill:#2e2a2b;fill-opacity:1;fill-rule:nonzero;stroke:none" id="path328" bx:origin="0.5 0.5"/>
      <path d="M 7070.73 6772.349 L 7596.617 6772.349 L 7596.617 7298.275 L 7070.73 7298.275 L 7070.73 6772.349 Z" style="fill:#e93d32;fill-opacity:1;fill-rule:nonzero;stroke:none" id="path330" bx:origin="0.5 0.5"/>
    </g>
  </g>
</svg>